# xmcd CD database file
#
# Track frame offsets:
#	150
#	23786
#	32196
#	53057
#	69687
#	85882
#	101445
#	114724
#	125220
#	146154
#	162765
#	179319
#	195441
#	208411
#	232750
#	247959
#
# Disc length: 3593 seconds
#
# Revision: 0
# Processed by: cddbd v1.5.2PL0 Copyright (c) Steve Scherf et al.
# Submitted via: CDex 1.70beta2
#
DISCID=e10e0710
DTITLE=diverse - Rendezvous Jazz Woman CD2
DYEAR=2008
DGENRE=Jazz
TTITLE0=The Moleskins: Money
TTITLE1=Solveig Slettahjell: P.S. I Love You
TTITLE2=Erin Boheme: Touch me tonight
TTITLE3=Inger Marie: If You Go Away
TTITLE4=Holly Cole: Larger than live
TTITLE5=Renee Olstead: A Love That Will Last
TTITLE6=Cassandra Wilson: Crazy
TTITLE7=Caroline Henderson: When You're Smiling
TTITLE8=Beady Bell: Game
TTITLE9=Molly Johnson: If You Know Love
TTITLE10=Malene Mortensen: I've Got My Love to Keep Me Warm
TTITLE11=Ulita Knaus: Four On The Floor
TTITLE12=Melody Gardot: Goodnite
TTITLE13=Diane Reeves: Lovin' You
TTITLE14=Kate Schutt: Wrecking Ball
TTITLE15=Karrin Allison: Time To Say Goodbye
EXTD=YEAR: 2008
EXTT0=
EXTT1=
EXTT2=
EXTT3=
EXTT4=
EXTT5=
EXTT6=
EXTT7=
EXTT8=
EXTT9=
EXTT10=
EXTT11=
EXTT12=
EXTT13=
EXTT14=
EXTT15=
PLAYORDER=
